<?xml version="1.0" encoding="utf-8"?>
<!-- Generator: Adobe Illustrator 28.1.0, SVG Export Plug-In . SVG Version: 6.00 Build 0)  -->
<svg version="1.1" id="Vrstva_1" xmlns="http://www.w3.org/2000/svg" xmlns:xlink="http://www.w3.org/1999/xlink" x="0px" y="0px"
	 viewBox="0 0 841.89 146.81" style="enable-background:new 0 0 841.89 146.81;" xml:space="preserve">
<style type="text/css">
	.st0{fill:#24AE7C;}
	.st1{fill:#FFFFFF;}
</style>
<g>
	<g>
		<path class="st0" d="M0,138.89V38.71h25.69v24.04l-1.84-3.49c2.2-8.44,5.84-14.16,10.92-17.16c5.07-3,11.1-4.5,18.07-4.5h5.87
			v23.85h-8.62c-6.73,0-12.17,2.05-16.33,6.15c-4.16,4.1-6.24,9.88-6.24,17.34v53.94H0z"/>
		<path class="st0" d="M102.2,138.89L62.75,38.71h29.72l27.34,75.78h-11.38l27.34-75.78h29.72l-39.45,100.18H102.2z"/>
		<path class="st0" d="M177.6,138.89V0h27.52v138.89H177.6z"/>
		<path class="st0" d="M273.56,139.99c-12.11,0-21.5-3.27-28.16-9.82c-6.67-6.54-10-15.69-10-27.43V62.57h-16.88V38.71h0.92
			c5.14,0,9.08-1.28,11.83-3.85c2.75-2.57,4.13-6.42,4.13-11.56v-7.34h27.52v22.75h23.49v23.85h-23.49v38.35
			c0,3.43,0.61,6.27,1.84,8.53c1.22,2.27,3.12,3.94,5.69,5.05c2.57,1.1,5.75,1.65,9.54,1.65c0.85,0,1.84-0.06,2.94-0.18
			c1.1-0.12,2.26-0.24,3.49-0.37v23.3c-1.83,0.24-3.92,0.49-6.24,0.73C277.84,139.87,275.64,139.99,273.56,139.99z"/>
		<path class="st0" d="M302.55,138.89V38.71h25.69v19.82l-1.47-4.4c2.32-5.99,6.08-10.43,11.28-13.3c5.2-2.87,11.28-4.31,18.26-4.31
			c7.58,0,14.22,1.59,19.91,4.77c5.69,3.18,10.12,7.61,13.3,13.3c3.18,5.69,4.77,12.32,4.77,19.91v64.4h-27.52V80.36
			c0-3.91-0.77-7.28-2.29-10.09c-1.53-2.81-3.67-5.01-6.42-6.61c-2.75-1.59-5.96-2.39-9.63-2.39c-3.55,0-6.73,0.8-9.54,2.39
			c-2.81,1.59-4.99,3.79-6.51,6.61c-1.53,2.82-2.29,6.18-2.29,10.09v58.53H302.55z"/>
		<path class="st1" d="M481.26,141.1c-9.79,0-18.87-1.77-27.25-5.32c-8.38-3.55-15.69-8.5-21.92-14.86
			c-6.24-6.36-11.1-13.82-14.59-22.38c-3.49-8.56-5.23-17.92-5.23-28.07c0-10.15,1.71-19.54,5.14-28.16
			c3.42-8.62,8.26-16.08,14.49-22.38c6.24-6.3,13.55-11.19,21.93-14.68C462.21,1.74,471.35,0,481.26,0s18.81,1.65,26.7,4.95
			c7.89,3.3,14.59,7.71,20.09,13.21c5.5,5.5,9.42,11.62,11.74,18.35l-25.14,12.11c-2.32-6.61-6.39-12.08-12.2-16.42
			c-5.81-4.34-12.88-6.51-21.19-6.51c-8.07,0-15.17,1.9-21.28,5.69c-6.12,3.79-10.86,9.02-14.22,15.69
			c-3.37,6.67-5.05,14.47-5.05,23.39c0,8.93,1.68,16.76,5.05,23.49c3.36,6.73,8.1,11.99,14.22,15.78
			c6.11,3.79,13.21,5.69,21.28,5.69c8.32,0,15.38-2.17,21.19-6.51c5.81-4.34,9.88-9.82,12.2-16.42l25.14,12.11
			c-2.33,6.73-6.24,12.84-11.74,18.35c-5.5,5.5-12.2,9.91-20.09,13.21S491.17,141.1,481.26,141.1z"/>
	</g>
	<g>
		<path class="st1" d="M677.31,138.89V38.71H703v24.04l-1.83-3.49c2.2-8.44,5.84-14.16,10.92-17.16c5.07-3,11.1-4.5,18.07-4.5h5.87
			v23.85h-8.62c-6.73,0-12.17,2.05-16.33,6.15c-4.16,4.1-6.24,9.88-6.24,17.34v53.94H677.31z"/>
		<path class="st1" d="M794.18,141.1c-10.64,0-19.88-2.35-27.71-7.06c-7.83-4.71-13.88-11.04-18.16-18.99
			c-4.28-7.95-6.42-16.76-6.42-26.42c0-10.03,2.23-18.96,6.7-26.79c4.46-7.83,10.49-14,18.07-18.53c7.58-4.52,16.15-6.79,25.69-6.79
			c7.95,0,14.98,1.26,21.1,3.76c6.11,2.51,11.28,6.03,15.5,10.55c4.22,4.53,7.43,9.76,9.63,15.69c2.2,5.93,3.3,12.39,3.3,19.36
			c0,1.96-0.09,3.88-0.28,5.78c-0.18,1.9-0.52,3.52-1.01,4.86h-75.04V76.33h59.45l-13.03,9.54c1.22-5.26,1.16-9.94-0.18-14.04
			c-1.35-4.1-3.7-7.34-7.07-9.72c-3.36-2.39-7.49-3.58-12.38-3.58c-4.77,0-8.87,1.16-12.29,3.49c-3.43,2.33-5.99,5.75-7.71,10.27
			c-1.71,4.53-2.39,10.03-2.02,16.51c-0.49,5.63,0.18,10.58,2.02,14.86c1.84,4.28,4.65,7.61,8.44,10c3.79,2.39,8.38,3.58,13.76,3.58
			c4.89,0,9.08-0.98,12.57-2.94c3.49-1.96,6.21-4.65,8.17-8.07l22.02,10.46c-1.96,4.89-5.05,9.17-9.27,12.84
			c-4.22,3.67-9.21,6.51-14.95,8.53C807.33,140.09,801.03,141.1,794.18,141.1z"/>
	</g>
	<g>
		<g>
			<path class="st0" d="M617.42,143.65c-3.86-0.45-7.44-1.86-11.03-3.24c-4.66-1.79-9.38-3.38-14.47-3.23
				c-3.52,0.1-7.03,0.36-10.55,0.52c-4.94,0.23-9.82-0.01-14.51-1.83c-12.3-4.78-16-20.47-7.02-30.13c1.76-1.89,3.92-3.45,6.01-5
				c7.9-5.85,15.42-12.17,22.83-18.62c4.12-3.58,8.82-5.71,14.39-5.53c4.52,0.15,8.28,2.07,11.47,5.18
				c3.21,3.12,5.59,6.87,7.68,10.77c3.59,6.72,7.73,13.05,12.63,18.89c1.59,1.89,2.94,4.03,4.12,6.2c3.59,6.62,2.57,12.94-1.78,18.8
				c-4.39,5.91-10.56,7.87-17.66,7.5C618.83,143.9,618.13,143.75,617.42,143.65z"/>
			<path class="st0" d="M606.21,49.93c-0.65,4-1.54,7.94-3.2,11.65c-1.73,3.87-4.38,7-8.04,9.18c-6.21,3.68-12.72,2.59-17.42-2.88
				c-3.7-4.3-4.84-9.4-4.41-14.91c0.64-8.31,4.63-14.84,10.93-20.1c2.99-2.5,6.13-4.76,9.92-5.88c4.96-1.47,8.75,0.28,10.83,5
				c1.71,3.88,1.93,8,1.81,12.16C606.58,46.07,606.36,48,606.21,49.93z"/>
			<path class="st0" d="M611.69,53.67c1.19-7.66,3.57-14.03,7.19-19.94c1.95-3.2,5.52-4.38,9.02-3.02c2.75,1.07,4.91,2.97,6.82,5.14
				c4.08,4.65,7.39,9.74,8.45,15.98c1.17,6.88,0.25,13.39-3.82,19.24c-1.88,2.71-4.33,4.78-7.35,6.12
				c-5.43,2.41-11.32,0.86-15.51-4.03c-3.75-4.37-5.1-9.56-5.05-15.19C611.45,56.28,611.63,54.57,611.69,53.67z"/>
			<path class="st0" d="M662.03,91.58c-1.19,7.06-4.66,12.43-11.27,15.49c-5.16,2.39-10.55,1.13-13.69-3.2
				c-2.01-2.76-2.54-5.9-2.13-9.22c0.66-5.36,3.14-9.89,6.53-13.98c2.13-2.57,4.56-4.82,7.57-6.35c4.26-2.17,8.05-1.09,10.46,3.05
				C662.08,81.79,662.53,86.62,662.03,91.58z"/>
			<path class="st0" d="M545.92,73.34c0.76-4.97,2.71-9.06,5.87-12.55c0.73-0.81,1.62-1.52,2.54-2.11c2.63-1.68,5.37-1.51,7.82,0.44
				c2.26,1.8,3.82,4.17,5.19,6.67c2.62,4.79,4.12,9.88,3.95,15.38c-0.08,2.43-0.47,4.8-1.67,6.97c-3.75,6.81-12.72,7.87-18.11,2.12
				C546.97,85.41,545.19,79.64,545.92,73.34z"/>
		</g>
	</g>
</g>
</svg>
